<?xml version="1.0" encoding="UTF-8" standalone="no"?>
<!-- Generator: Adobe Illustrator 18.1.0, SVG Export Plug-In . SVG Version: 6.00 Build 0)  -->

<svg
   xmlns:dc="http://purl.org/dc/elements/1.1/"
   xmlns:cc="http://creativecommons.org/ns#"
   xmlns:rdf="http://www.w3.org/1999/02/22-rdf-syntax-ns#"
   xmlns:svg="http://www.w3.org/2000/svg"
   xmlns="http://www.w3.org/2000/svg"
   xmlns:sodipodi="http://sodipodi.sourceforge.net/DTD/sodipodi-0.dtd"
   xmlns:inkscape="http://www.inkscape.org/namespaces/inkscape"
   version="1.1"
   id="Ebene_1"
   x="0px"
   y="0px"
   viewBox="0 0 268.9 83.7"
   enable-background="new 0 0 268.9 83.7"
   xml:space="preserve"
   inkscape:version="0.48.4 r9939"
   width="100%"
   height="100%"
   sodipodi:docname="freifunk-flensburg.svg"
   inkscape:export-filename="/home/roland/Dokumente/ff-ebs-webseite/app/images/freifunk-flensburg.png"
   inkscape:export-xdpi="90"
   inkscape:export-ydpi="90"><metadata
     id="metadata61"><rdf:RDF><cc:Work
         rdf:about=""><dc:format>image/svg+xml</dc:format><dc:type
           rdf:resource="http://purl.org/dc/dcmitype/StillImage" /></cc:Work></rdf:RDF></metadata><defs
     id="defs59" /><sodipodi:namedview
     pagecolor="#ffffff"
     bordercolor="#666666"
     borderopacity="1"
     objecttolerance="10"
     gridtolerance="10"
     guidetolerance="10"
     inkscape:pageopacity="0"
     inkscape:pageshadow="2"
     inkscape:window-width="1871"
     inkscape:window-height="1056"
     id="namedview57"
     showgrid="false"
     inkscape:zoom="1.1937523"
     inkscape:cx="15.407576"
     inkscape:cy="41.849997"
     inkscape:window-x="49"
     inkscape:window-y="24"
     inkscape:window-maximized="1"
     inkscape:current-layer="g37" /><g
     id="g3"><path
       d="M0,53.3c0-15.9,12.9-28.8,28.8-28.8c15.9,0,28.8,12.9,28.8,28.8S44.7,82,28.8,82C12.9,82,0,69.1,0,53.3   L0,53.3z"
       id="path5"
       fill="#FFFFFF" /><path
       d="M27.2,41.9C27.2,18.7,45.8,0,68.9,0c23,0,41.7,18.7,41.7,41.9S91.9,83.7,68.9,83.7   C45.8,83.7,27.2,65,27.2,41.9L27.2,41.9z"
       id="path7"
       fill="#FFFFFF" /><path
       d="M28.8,76.4C16,76.4,5.7,66,5.7,53.3S16,30.1,28.8,30.1c12.7,0,23.1,10.4,23.1,23.2S41.5,76.4,28.8,76.4z    M28.8,31.2c-12.1,0-22,9.9-22,22.1s9.9,22.1,22,22.1c12.1,0,22-9.9,22-22.1S40.9,31.2,28.8,31.2z"
       id="path9"
       fill="#DC0267" /><polygon
       points="57.6,48.1 67.2,38.5 76.2,38.5 69.8,44.9 82.5,44.9 82.5,51.3 69.8,51.3 76.2,57.7 67.2,57.7   57.6,48.1  "
       id="polygon11"
       fill="#FAB313" /><polygon
       points="29.4,48.1 23.7,42.5 18.4,42.5 22.2,46.2 14.7,46.2 14.7,50 22.2,50 18.4,53.8 23.7,53.8   29.4,48.1  "
       id="polygon13"
       fill="#FAB313" /><path
       d="M68.9,76.9c-19.3,0-34.9-15.7-34.9-35.1c0-19.3,15.7-35.1,34.9-35.1c19.3,0,34.9,15.7,34.9,35.1   C103.8,61.2,88.1,76.9,68.9,76.9z M68.9,13.6c-15.5,0-28.1,12.7-28.1,28.3c0,15.6,12.6,28.3,28.1,28.3C84.4,70.1,97,57.5,97,41.9   C97,26.3,84.4,13.6,68.9,13.6z"
       id="path15"
       fill="#DC0267" /><path
       d="M68.9,66.7c-13.6,0-24.7-11.1-24.7-24.8C44.1,28.2,55.2,17,68.9,17s24.7,11.1,24.7,24.8   C93.6,55.6,82.5,66.7,68.9,66.7z M68.9,18.2c-13,0-23.6,10.6-23.6,23.7c0,13.1,10.6,23.7,23.6,23.7s23.6-10.6,23.6-23.7   C92.5,28.8,81.9,18.2,68.9,18.2z"
       id="path17"
       fill="#DC0267" /></g><g
     id="g37"><g
       style="font-size:11.76224899px;font-style:normal;font-variant:normal;font-weight:bold;font-stretch:normal;line-height:125%;letter-spacing:0px;word-spacing:0px;fill:#dc0267;fill-opacity:1;stroke:none;font-family:OpenSymbol;-inkscape-font-specification:OpenSymbol Bold"
       id="text3038"><path
         d="m 111.47062,22.546968 9.28243,0 0,2.599794 -5.84284,0 0,2.483652 5.49441,0 0,2.599794 -5.49441,0 0,5.655221 -3.43959,0 0,-13.338461"
         style="font-size:18.29683113px;fill:#dc0267;font-family:OpenSymbol;-inkscape-font-specification:OpenSymbol Bold"
         id="path3821" /><path
         d="m 130.08908,28.60422 c -0.27994,-0.131025 -0.55987,-0.226321 -0.8398,-0.285888 -0.27398,-0.06551 -0.55094,-0.09827 -0.83086,-0.09827 -0.82193,7e-6 -1.45625,0.265049 -1.90294,0.795126 -0.44075,0.524134 -0.66112,1.277567 -0.66112,2.260302 l 0,4.609943 -3.19837,0 0,-10.006079 3.19837,0 0,1.643856 c 0.41096,-0.655151 0.88148,-1.131631 1.41157,-1.42944 0.53604,-0.303746 1.17631,-0.455624 1.92081,-0.455634 0.1072,10e-6 0.22335,0.006 0.34843,0.01787 0.12507,0.006 0.30673,0.02383 0.54497,0.0536 l 0.009,2.894616"
         style="font-size:18.29683113px;fill:#dc0267;font-family:OpenSymbol;-inkscape-font-specification:OpenSymbol Bold"
         id="path3823" /><path
         d="m 141.68541,30.855588 0,0.911268 -7.47776,0 c 0.0774,0.750459 0.34842,1.3133 0.81299,1.688525 0.46457,0.375231 1.11377,0.562844 1.94762,0.562842 0.67302,2e-6 1.36093,-0.09827 2.06375,-0.294822 0.70876,-0.202501 1.43539,-0.506257 2.1799,-0.911267 l 0,2.465783 c -0.75643,0.285889 -1.51284,0.500304 -2.26924,0.643248 -0.75642,0.1489 -1.51283,0.22335 -2.26924,0.22335 -1.81062,0 -3.21922,-0.458611 -4.22578,-1.375836 -1.00061,-0.923177 -1.50091,-2.215628 -1.50091,-3.877355 0,-1.631938 0.49137,-2.915454 1.47411,-3.850554 0.98869,-0.935082 2.34666,-1.402628 4.0739,-1.402638 1.57238,10e-6 2.8291,0.473512 3.77015,1.420506 0.947,0.947012 1.4205,2.21266 1.42051,3.79695 m -3.28771,-1.063146 c -10e-6,-0.607506 -0.17869,-1.095897 -0.53604,-1.465176 -0.35141,-0.37522 -0.813,-0.562834 -1.38477,-0.562842 -0.61943,8e-6 -1.12271,0.17571 -1.50985,0.527106 -0.38714,0.345455 -0.62836,0.845758 -0.72365,1.500912 l 4.15431,0"
         style="font-size:18.29683113px;fill:#dc0267;font-family:OpenSymbol;-inkscape-font-specification:OpenSymbol Bold"
         id="path3825" /><path
         d="m 144.09759,25.87935 3.19837,0 0,10.006079 -3.19837,0 0,-10.006079 m 0,-3.895224 3.19837,0 0,2.608728 -3.19837,0 0,-2.608728"
         style="font-size:18.29683113px;fill:#dc0267;font-family:OpenSymbol;-inkscape-font-specification:OpenSymbol Bold"
         id="path3827" /><path
         d="m 156.97148,21.984126 0,2.09949 -1.76893,0 c -0.45266,1.2e-5 -0.76833,0.0834 -0.947,0.250152 -0.17869,0.160823 -0.26803,0.443733 -0.26802,0.84873 l 0,0.696852 2.7338,0 0,2.287104 -2.7338,0 0,7.718975 -3.19837,0 0,-7.718975 -1.59025,0 0,-2.287104 1.59025,0 0,-0.696852 c 0,-1.089936 0.30375,-1.893995 0.91126,-2.41218 0.60751,-0.524114 1.54856,-0.786178 2.82315,-0.786192 l 2.44791,0"
         style="font-size:18.29683113px;fill:#dc0267;font-family:OpenSymbol;-inkscape-font-specification:OpenSymbol Bold"
         id="path3829" /><path
         d="m 158.24904,31.990206 0,-6.110856 3.21624,0 0,1.000608 c 0,0.542004 -0.003,1.223966 -0.009,2.045886 -0.006,0.815978 -0.009,1.360951 -0.009,1.634922 0,0.804064 0.0208,1.384774 0.0625,1.74213 0.0417,0.351407 0.11316,0.607514 0.21442,0.768324 0.13103,0.208462 0.30077,0.369274 0.50924,0.482435 0.21441,0.113167 0.4586,0.169749 0.73258,0.169746 0.66707,3e-6 1.1912,-0.256105 1.57239,-0.768323 0.38117,-0.512213 0.57177,-1.223954 0.57177,-2.135226 l 0,-4.940502 3.19838,0 0,10.006079 -3.19838,0 0,-1.447308 c -0.48244,0.583689 -0.99465,1.015499 -1.53664,1.29543 -0.53605,0.273976 -1.12867,0.410964 -1.77787,0.410964 -1.15547,0 -2.03695,-0.354382 -2.64446,-1.063146 -0.60156,-0.708762 -0.90234,-1.739149 -0.90234,-3.091163"
         style="font-size:18.29683113px;fill:#dc0267;font-family:OpenSymbol;-inkscape-font-specification:OpenSymbol Bold"
         id="path3831" /><path
         d="m 181.45957,29.792442 0,6.092987 -3.21624,0 0,-0.991674 0,-3.671873 c 0,-0.863615 -0.0208,-1.459214 -0.0625,-1.7868 -0.0358,-0.327574 -0.10126,-0.568791 -0.19655,-0.723654 -0.12509,-0.208453 -0.29483,-0.369265 -0.50924,-0.482436 -0.21442,-0.119112 -0.45862,-0.178672 -0.73259,-0.17868 -0.66708,8e-6 -1.1912,0.259093 -1.57238,0.777258 -0.38119,0.512222 -0.57178,1.223963 -0.57178,2.135226 l 0,4.922633 -3.19837,0 0,-10.006079 3.19837,0 0,1.465176 c 0.48243,-0.583679 0.99465,-1.012511 1.53665,-1.286496 0.54199,-0.279922 1.14057,-0.419888 1.79573,-0.419898 1.15546,10e-6 2.03099,0.354392 2.6266,1.063146 0.60155,0.708772 0.90232,1.739159 0.90233,3.091164"
         style="font-size:18.29683113px;fill:#dc0267;font-family:OpenSymbol;-inkscape-font-specification:OpenSymbol Bold"
         id="path3833" /><path
         d="m 184.44353,21.984126 3.19837,0 0,7.567098 3.68081,-3.671874 3.71654,0 -4.88689,4.592076 5.27106,5.414003 -3.87736,0 -3.90416,-4.172177 0,4.172177 -3.19837,0 0,-13.901303"
         style="font-size:18.29683113px;fill:#dc0267;font-family:OpenSymbol;-inkscape-font-specification:OpenSymbol Bold"
         id="path3835" /><path
         d="m 111.47062,45.418007 9.28243,0 0,2.599794 -5.84284,0 0,2.483652 5.49441,0 0,2.599794 -5.49441,0 0,3.055427 6.03939,0 0,2.599794 -9.47898,0 0,-13.338461"
         style="font-size:18.29683113px;fill:#dc0267;font-family:OpenSymbol;-inkscape-font-specification:OpenSymbol Bold"
         id="path3837" /><path
         d="m 129.15994,56.692714 c 0.68493,2e-6 1.20608,-0.250149 1.56345,-0.750456 0.36331,-0.5003 0.54497,-1.226931 0.54498,-2.179895 -1e-5,-0.952954 -0.18167,-1.679586 -0.54498,-2.179896 -0.35737,-0.500297 -0.87852,-0.750448 -1.56345,-0.750456 -0.68494,8e-6 -1.21205,0.253137 -1.58132,0.75939 -0.36332,0.50031 -0.54497,1.223964 -0.54497,2.170962 0,0.947008 0.18165,1.673639 0.54497,2.179895 0.36927,0.500307 0.89638,0.750458 1.58132,0.750456 m -2.12629,-6.477149 c 0.44074,-0.583679 0.92913,-1.012511 1.46518,-1.286496 0.53603,-0.279922 1.15248,-0.419888 1.84933,-0.419898 1.23289,10e-6 2.24541,0.49138 3.03756,1.47411 0.79214,0.976791 1.18821,2.236484 1.18823,3.779082 -2e-5,1.542607 -0.39609,2.805278 -1.18823,3.788015 -0.79215,0.976785 -1.80467,1.465176 -3.03756,1.465176 -0.69685,0 -1.3133,-0.136988 -1.84933,-0.410964 -0.53605,-0.279931 -1.02444,-0.711741 -1.46518,-1.29543 l 0,1.447308 -3.19837,0 0,-13.901303 3.19837,0 0,5.3604"
         style="font-size:18.29683113px;fill:#dc0267;font-family:OpenSymbol;-inkscape-font-specification:OpenSymbol Bold"
         id="path3839" /><path
         d="m 146.9386,53.726627 0,0.911267 -7.47776,0 c 0.0774,0.75046 0.34843,1.313301 0.813,1.688526 0.46456,0.37523 1.11376,0.562844 1.94761,0.562842 0.67302,2e-6 1.36094,-0.09827 2.06375,-0.294822 0.70876,-0.202501 1.43539,-0.506257 2.1799,-0.911268 l 0,2.465784 c -0.75642,0.285889 -1.51283,0.500304 -2.26924,0.643248 -0.75642,0.1489 -1.51283,0.22335 -2.26923,0.22335 -1.81063,0 -3.21922,-0.458611 -4.22578,-1.375836 -1.00061,-0.923178 -1.50092,-2.215628 -1.50092,-3.877355 0,-1.631938 0.49137,-2.915454 1.47411,-3.850554 0.9887,-0.935082 2.34666,-1.402628 4.07391,-1.402638 1.57237,10e-6 2.82909,0.473512 3.77015,1.420506 0.94699,0.947012 1.42049,2.21266 1.4205,3.79695 m -3.28771,-1.063146 c -1e-5,-0.607506 -0.17869,-1.095897 -0.53604,-1.465176 -0.35141,-0.37522 -0.813,-0.562834 -1.38477,-0.562842 -0.61943,8e-6 -1.12271,0.17571 -1.50985,0.527106 -0.38714,0.345455 -0.62836,0.845758 -0.72365,1.500912 l 4.15431,0"
         style="font-size:18.29683113px;fill:#dc0267;font-family:OpenSymbol;-inkscape-font-specification:OpenSymbol Bold"
         id="path3841" /><path
         d="m 156.78387,51.475259 c -0.27994,-0.131025 -0.55987,-0.226321 -0.8398,-0.285888 -0.27398,-0.06551 -0.55094,-0.09827 -0.83086,-0.09827 -0.82193,7e-6 -1.45625,0.265049 -1.90294,0.795126 -0.44075,0.524134 -0.66112,1.277567 -0.66112,2.260302 l 0,4.609943 -3.19837,0 0,-10.006079 3.19837,0 0,1.643856 c 0.41096,-0.655151 0.88148,-1.131631 1.41157,-1.42944 0.53604,-0.303746 1.17631,-0.455624 1.92081,-0.455634 0.1072,10e-6 0.22335,0.006 0.34843,0.01787 0.12507,0.006 0.30673,0.02383 0.54497,0.0536 l 0.009,2.894616"
         style="font-size:18.29683113px;fill:#dc0267;font-family:OpenSymbol;-inkscape-font-specification:OpenSymbol Bold"
         id="path3843" /><path
         d="m 167.66548,50.412113 c 0.405,-0.619415 0.88445,-1.089939 1.43837,-1.411572 0.55985,-0.32757 1.17332,-0.49136 1.84041,-0.49137 1.14949,10e-6 2.02502,0.354392 2.62659,1.063146 0.60154,0.708772 0.90232,1.739159 0.90234,3.091164 l 0,6.092987 -3.21624,0 0,-5.217455 c 0.006,-0.07742 0.009,-0.157829 0.009,-0.241218 0.006,-0.08338 0.009,-0.202499 0.009,-0.35736 -1e-5,-0.708758 -0.10424,-1.220973 -0.31269,-1.536648 -0.20847,-0.321617 -0.54498,-0.482428 -1.00954,-0.482436 -0.60752,8e-6 -1.07805,0.250159 -1.41157,0.750456 -0.32759,0.50031 -0.49734,1.223963 -0.50924,2.170962 l 0,4.913699 -3.21624,0 0,-5.217455 c -1e-5,-1.10781 -0.0953,-1.819551 -0.28589,-2.135226 -0.19059,-0.321617 -0.53009,-0.482428 -1.01847,-0.482436 -0.61348,8e-6 -1.08698,0.253137 -1.42051,0.75939 -0.33354,0.50031 -0.50031,1.218007 -0.5003,2.153094 l 0,4.922633 -3.21624,0 0,-10.006079 3.21624,0 0,1.465176 c 0.39309,-0.565811 0.84277,-0.991665 1.34903,-1.277562 0.51221,-0.285878 1.07505,-0.428822 1.68853,-0.428832 0.69089,10e-6 1.30138,0.166778 1.83147,0.500304 0.53007,0.333545 0.9321,0.801091 1.20609,1.402638"
         style="font-size:18.29683113px;fill:#dc0267;font-family:OpenSymbol;-inkscape-font-specification:OpenSymbol Bold"
         id="path3845" /><path
         d="m 181.95988,54.253733 c -0.66708,4e-6 -1.17036,0.113168 -1.50985,0.339491 -0.33354,0.226332 -0.50031,0.559868 -0.5003,1.000608 -10e-6,0.405011 0.134,0.723657 0.40203,0.955938 0.27397,0.22633 0.65217,0.339494 1.13462,0.339492 0.60155,2e-6 1.10781,-0.214414 1.51878,-0.643248 0.41095,-0.434785 0.61643,-0.97678 0.61644,-1.625988 l 0,-0.366293 -1.66172,0 m 4.8869,-1.20609 0,5.708825 -3.22518,0 0,-1.483044 c -0.42884,0.607513 -0.91127,1.051235 -1.44731,1.331166 -0.53604,0.273976 -1.18822,0.410964 -1.95654,0.410964 -1.03635,0 -1.87912,-0.300778 -2.52832,-0.902334 -0.64325,-0.60751 -0.96488,-1.393702 -0.96488,-2.358576 0,-1.173327 0.40203,-2.033968 1.20609,-2.581925 0.81002,-0.547946 2.07864,-0.821922 3.80589,-0.821928 l 1.88507,0 0,-0.250152 c -1e-5,-0.506253 -0.19953,-0.875525 -0.59858,-1.107816 -0.39905,-0.238232 -1.02146,-0.357352 -1.8672,-0.35736 -0.68495,8e-6 -1.32224,0.0685 -1.91188,0.205482 -0.58964,0.136995 -1.1376,0.342477 -1.64385,0.616446 l 0,-2.438982 c 0.68493,-0.166758 1.37285,-0.291834 2.06375,-0.375228 0.69089,-0.08933 1.38179,-0.134 2.07269,-0.13401 1.80466,10e-6 3.10604,0.35737 3.90416,1.07208 0.80405,0.708772 1.20607,1.864235 1.20609,3.466392"
         style="font-size:18.29683113px;fill:#dc0267;font-family:OpenSymbol;-inkscape-font-specification:OpenSymbol Bold"
         id="path3847" /><path
         d="m 199.89935,52.663481 0,6.092987 -3.21624,0 0,-0.991674 0,-3.671873 c -1e-5,-0.863615 -0.0209,-1.459214 -0.0625,-1.7868 -0.0357,-0.327574 -0.10126,-0.568791 -0.19655,-0.723654 -0.12508,-0.208453 -0.29483,-0.369265 -0.50924,-0.482436 -0.21442,-0.119113 -0.45861,-0.178672 -0.73258,-0.17868 -0.66708,8e-6 -1.19121,0.259093 -1.57239,0.777258 -0.38119,0.512222 -0.57178,1.223963 -0.57177,2.135226 l 0,4.922633 -3.19838,0 0,-10.006079 3.19838,0 0,1.465176 c 0.48243,-0.583679 0.99464,-1.012511 1.53664,-1.286496 0.54199,-0.279922 1.14057,-0.419888 1.79574,-0.419898 1.15545,10e-6 2.03098,0.354392 2.62659,1.063146 0.60155,0.708772 0.90233,1.739159 0.90234,3.091164"
         style="font-size:18.29683113px;fill:#dc0267;font-family:OpenSymbol;-inkscape-font-specification:OpenSymbol Bold"
         id="path3849" /><path
         d="m 212.94299,52.663481 0,6.092987 -3.21624,0 0,-0.991674 0,-3.671873 c -1e-5,-0.863615 -0.0209,-1.459214 -0.0625,-1.7868 -0.0357,-0.327574 -0.10126,-0.568791 -0.19655,-0.723654 -0.12508,-0.208453 -0.29483,-0.369265 -0.50924,-0.482436 -0.21442,-0.119113 -0.45861,-0.178672 -0.73258,-0.17868 -0.66708,8e-6 -1.19121,0.259093 -1.57239,0.777258 -0.38119,0.512222 -0.57178,1.223963 -0.57177,2.135226 l 0,4.922633 -3.19838,0 0,-10.006079 3.19838,0 0,1.465176 c 0.48243,-0.583679 0.99464,-1.012511 1.53664,-1.286496 0.54199,-0.279922 1.14057,-0.419888 1.79574,-0.419898 1.15545,10e-6 2.03098,0.354392 2.62659,1.063146 0.60155,0.708772 0.90233,1.739159 0.90234,3.091164"
         style="font-size:18.29683113px;fill:#dc0267;font-family:OpenSymbol;-inkscape-font-specification:OpenSymbol Bold"
         id="path3851" /><path
         d="m 223.74419,49.063079 0,2.430048 c -0.68494,-0.285881 -1.34606,-0.500297 -1.98334,-0.643248 -0.6373,-0.142936 -1.23886,-0.214408 -1.80467,-0.214416 -0.60752,8e-6 -1.06017,0.07744 -1.35797,0.232284 -0.29185,0.148907 -0.43777,0.381191 -0.43777,0.696852 0,0.256115 0.11019,0.452662 0.33056,0.589644 0.22633,0.136994 0.62836,0.238246 1.20609,0.303756 l 0.56284,0.08041 c 1.6379,0.208466 2.73976,0.550935 3.30558,1.02741 0.56581,0.476484 0.84872,1.223961 0.84873,2.242433 -1e-5,1.066126 -0.3931,1.867207 -1.17928,2.403246 -0.7862,0.53604 -1.95953,0.80406 -3.52,0.80406 -0.66112,0 -1.34606,-0.0536 -2.05482,-0.160812 -0.70281,-0.101252 -1.42646,-0.256108 -2.17096,-0.464568 l 0,-2.430048 c 0.63729,0.309715 1.28947,0.541999 1.95654,0.696852 0.67303,0.154858 1.35499,0.232286 2.04589,0.232284 0.62537,2e-6 1.0959,-0.08636 1.41157,-0.259086 0.31566,-0.172721 0.4735,-0.428829 0.4735,-0.768324 0,-0.285884 -0.11019,-0.497322 -0.33055,-0.634314 -0.21443,-0.14294 -0.64624,-0.253126 -1.29543,-0.330558 l -0.56285,-0.07147 c -1.42348,-0.178675 -2.42111,-0.509233 -2.99289,-0.991673 -0.57177,-0.482431 -0.85766,-1.215018 -0.85766,-2.197764 0,-1.06016 0.36332,-1.846351 1.08995,-2.358576 0.72663,-0.512206 1.8404,-0.768314 3.34131,-0.768324 0.58964,10e-6 1.20907,0.04468 1.85828,0.13401 0.64919,0.08935 1.35498,0.229316 2.11735,0.419898"
         style="font-size:18.29683113px;fill:#dc0267;font-family:OpenSymbol;-inkscape-font-specification:OpenSymbol Bold"
         id="path3853" /><path
         d="m 230.31962,45.909377 0,2.841012 3.29665,0 0,2.287104 -3.29665,0 0,4.243649 c 0,0.464571 0.0923,0.780239 0.27696,0.947004 0.18463,0.160815 0.55092,0.241221 1.09888,0.241218 l 1.64385,0 0,2.287104 -2.74273,0 c -1.26268,0 -2.15906,-0.262063 -2.68914,-0.786192 -0.52413,-0.530082 -0.78619,-1.426459 -0.78619,-2.689134 l 0,-4.243649 -1.59025,0 0,-2.287104 1.59025,0 0,-2.841012 3.19837,0"
         style="font-size:18.29683113px;fill:#dc0267;font-family:OpenSymbol;-inkscape-font-specification:OpenSymbol Bold"
         id="path3855" /><path
         d="m 240.06661,54.253733 c -0.66707,4e-6 -1.17036,0.113168 -1.50984,0.339491 -0.33354,0.226332 -0.50031,0.559868 -0.50031,1.000608 0,0.405011 0.13401,0.723657 0.40203,0.955938 0.27397,0.22633 0.65218,0.339494 1.13462,0.339492 0.60155,2e-6 1.10781,-0.214414 1.51878,-0.643248 0.41096,-0.434785 0.61644,-0.97678 0.61645,-1.625988 l 0,-0.366293 -1.66173,0 m 4.8869,-1.20609 0,5.708825 -3.22517,0 0,-1.483044 c -0.42884,0.607513 -0.91128,1.051235 -1.44731,1.331166 -0.53605,0.273976 -1.18823,0.410964 -1.95655,0.410964 -1.03634,0 -1.87912,-0.300778 -2.52832,-0.902334 -0.64325,-0.60751 -0.96487,-1.393702 -0.96487,-2.358576 0,-1.173327 0.40203,-2.033968 1.20609,-2.581925 0.81001,-0.547946 2.07864,-0.821922 3.80588,-0.821928 l 1.88508,0 0,-0.250152 c -1e-5,-0.506253 -0.19954,-0.875525 -0.59858,-1.107816 -0.39906,-0.238232 -1.02146,-0.357352 -1.86721,-0.35736 -0.68494,8e-6 -1.32223,0.0685 -1.91187,0.205482 -0.58965,0.136995 -1.1376,0.342477 -1.64386,0.616446 l 0,-2.438982 c 0.68494,-0.166758 1.37286,-0.291834 2.06376,-0.375228 0.69089,-0.08933 1.38178,-0.134 2.07268,-0.13401 1.80466,10e-6 3.10605,0.35737 3.90416,1.07208 0.80405,0.708772 1.20608,1.864235 1.20609,3.466392"
         style="font-size:18.29683113px;fill:#dc0267;font-family:OpenSymbol;-inkscape-font-specification:OpenSymbol Bold"
         id="path3857" /><path
         d="m 254.75412,50.215565 0,-5.3604 3.21623,0 0,13.901303 -3.21623,0 0,-1.447308 c -0.44076,0.589645 -0.92617,1.021455 -1.45625,1.29543 -0.53009,0.273976 -1.14355,0.410964 -1.8404,0.410964 -1.2329,0 -2.24542,-0.488391 -3.03756,-1.465176 -0.79215,-0.982737 -1.18822,-2.245408 -1.18822,-3.788015 0,-1.542598 0.39607,-2.802291 1.18822,-3.779082 0.79214,-0.98273 1.80466,-1.4741 3.03756,-1.47411 0.69089,10e-6 1.30138,0.139976 1.83147,0.419898 0.53603,0.273985 1.02442,0.702817 1.46518,1.286496 m -2.10843,6.477149 c 0.68493,2e-6 1.20608,-0.250149 1.56345,-0.750456 0.36331,-0.5003 0.54497,-1.226931 0.54498,-2.179895 -1e-5,-0.952954 -0.18167,-1.679586 -0.54498,-2.179896 -0.35737,-0.500297 -0.87852,-0.750448 -1.56345,-0.750456 -0.67899,8e-6 -1.20014,0.250159 -1.56345,0.750456 -0.35736,0.50031 -0.53604,1.226942 -0.53604,2.179896 0,0.952964 0.17868,1.679595 0.53604,2.179895 0.36331,0.500307 0.88446,0.750458 1.56345,0.750456"
         style="font-size:18.29683113px;fill:#dc0267;font-family:OpenSymbol;-inkscape-font-specification:OpenSymbol Bold"
         id="path3859" /><path
         d="m 264.5547,45.909377 0,2.841012 3.29664,0 0,2.287104 -3.29664,0 0,4.243649 c -1e-5,0.464571 0.0923,0.780239 0.27695,0.947004 0.18463,0.160815 0.55093,0.241221 1.09888,0.241218 l 1.64386,0 0,2.287104 -2.74274,0 c -1.26267,0 -2.15905,-0.262063 -2.68913,-0.786192 -0.52413,-0.530082 -0.7862,-1.426459 -0.78619,-2.689134 l 0,-4.243649 -1.59026,0 0,-2.287104 1.59026,0 0,-2.841012 3.19837,0"
         style="font-size:18.29683113px;fill:#dc0267;font-family:OpenSymbol;-inkscape-font-specification:OpenSymbol Bold"
         id="path3861" /></g><flowRoot
       xml:space="preserve"
       id="flowRoot3812"
       style="fill:black;stroke:none;stroke-opacity:1;stroke-width:1px;stroke-linejoin:miter;stroke-linecap:butt;fill-opacity:1;font-family:Sans;font-style:normal;font-weight:normal;font-size:18px;line-height:125%;letter-spacing:0px;word-spacing:0px"><flowRegion
         id="flowRegion3814"><rect
           id="rect3816"
           width="349.3187"
           height="165.86356"
           x="116.43957"
           y="-219.54549" /></flowRegion><flowPara
         id="flowPara3818"></flowPara></flowRoot></g></svg>
